<?xml version="1.0" encoding="utf-8"?>
<!-- Generator: Adobe Illustrator 27.5.0, SVG Export Plug-In . SVG Version: 6.00 Build 0)  -->
<svg version="1.1" id="Layer_4" xmlns="http://www.w3.org/2000/svg" xmlns:xlink="http://www.w3.org/1999/xlink" x="0px" y="0px"
	 viewBox="0 0 3000 2500" style="enable-background:new 0 0 3000 2500;" xml:space="preserve">
<rect x="42.668" y="48.715" style="fill:none;" width="2914.663" height="2427.885"/>
<g>
	<defs>
		<filter id="Adobe_OpacityMaskFilter" filterUnits="userSpaceOnUse" x="1499.594" y="2057.25" width="420.228" height="177.448">
			<feFlood  style="flood-color:white;flood-opacity:1" result="back"/>
			<feBlend  in="SourceGraphic" in2="back" mode="normal"/>
		</filter>
	</defs>
	<mask maskUnits="userSpaceOnUse" x="1499.594" y="2057.25" width="420.228" height="177.448" id="SVGID_1_">
		<g style="filter:url(#Adobe_OpacityMaskFilter);">
			<defs>
				
					<filter id="Adobe_OpacityMaskFilter_00000041984097071882545820000009325373867217730190_" filterUnits="userSpaceOnUse" x="1499.594" y="2057.25" width="420.228" height="177.448">
					<feFlood  style="flood-color:white;flood-opacity:1" result="back"/>
					<feBlend  in="SourceGraphic" in2="back" mode="normal"/>
				</filter>
			</defs>
			<mask maskUnits="userSpaceOnUse" x="1499.594" y="2057.25" width="420.228" height="177.448" id="SVGID_1_">
				<g style="filter:url(#Adobe_OpacityMaskFilter_00000041984097071882545820000009325373867217730190_);">
				</g>
			</mask>
			
				<linearGradient id="SVGID_00000051366578696225844090000008672755775496631690_" gradientUnits="userSpaceOnUse" x1="1610.2245" y1="2063.7947" x2="1858.1245" y2="2288.8118">
				<stop  offset="0" style="stop-color:#FFFFFF"/>
				<stop  offset="1" style="stop-color:#000000"/>
			</linearGradient>
			<path style="mask:url(#SVGID_1_);fill:url(#SVGID_00000051366578696225844090000008672755775496631690_);" d="M1501.226,2127.689
				c0,0-20.823,15.613,86.302,61.272c107.125,45.66,253.244,67.471,320.969,15.882c67.725-51.59-190.429-147.593-190.429-147.593
				L1501.226,2127.689z"/>
		</g>
	</mask>
	
		<linearGradient id="SVGID_00000023994109957089968530000013391187879183029913_" gradientUnits="userSpaceOnUse" x1="1610.2245" y1="2063.7947" x2="1858.1245" y2="2288.8118">
		<stop  offset="0" style="stop-color:#0C5C93"/>
		<stop  offset="1" style="stop-color:#0C5C93"/>
	</linearGradient>
	<path style="opacity:0.3;fill:url(#SVGID_00000023994109957089968530000013391187879183029913_);" d="M1501.226,2127.689
		c0,0-20.823,15.613,86.302,61.272c107.125,45.66,253.244,67.471,320.969,15.882c67.725-51.59-190.429-147.593-190.429-147.593
		L1501.226,2127.689z"/>
	<g>
		<defs>
			
				<filter id="Adobe_OpacityMaskFilter_00000088091261243116709740000017468446904477981628_" filterUnits="userSpaceOnUse" x="833.586" y="1810.341" width="717.867" height="303.132">
				<feFlood  style="flood-color:white;flood-opacity:1" result="back"/>
				<feBlend  in="SourceGraphic" in2="back" mode="normal"/>
			</filter>
		</defs>
		
			<mask maskUnits="userSpaceOnUse" x="833.586" y="1810.341" width="717.867" height="303.132" id="SVGID_00000124129783340404103950000007032338735796538258_">
			<g style="filter:url(#Adobe_OpacityMaskFilter_00000088091261243116709740000017468446904477981628_);">
				<defs>
					
						<filter id="Adobe_OpacityMaskFilter_00000112610763144495248130000009867244408546483126_" filterUnits="userSpaceOnUse" x="833.586" y="1810.341" width="717.867" height="303.132">
						<feFlood  style="flood-color:white;flood-opacity:1" result="back"/>
						<feBlend  in="SourceGraphic" in2="back" mode="normal"/>
					</filter>
				</defs>
				
					<mask maskUnits="userSpaceOnUse" x="833.586" y="1810.341" width="717.867" height="303.132" id="SVGID_00000124129783340404103950000007032338735796538258_">
					<g style="filter:url(#Adobe_OpacityMaskFilter_00000112610763144495248130000009867244408546483126_);">
					</g>
				</mask>
				
					<linearGradient id="SVGID_00000043438273102172544680000013864817015057591937_" gradientUnits="userSpaceOnUse" x1="1022.5735" y1="1821.5216" x2="1446.0569" y2="2205.9143">
					<stop  offset="0" style="stop-color:#FFFFFF"/>
					<stop  offset="1" style="stop-color:#000000"/>
				</linearGradient>
				
					<path style="mask:url(#SVGID_00000124129783340404103950000007032338735796538258_);fill:url(#SVGID_00000043438273102172544680000013864817015057591937_);" d="
					M836.374,1930.671c0,0-35.572,26.67,147.428,104.67c183,78,432.612,115.261,548.306,27.13
					c115.694-88.13-325.306-252.13-325.306-252.13L836.374,1930.671z"/>
			</g>
		</mask>
		
			<linearGradient id="SVGID_00000013886334875674260100000006608839945916281784_" gradientUnits="userSpaceOnUse" x1="1022.5735" y1="1821.5216" x2="1446.0569" y2="2205.9143">
			<stop  offset="0" style="stop-color:#0C5C93"/>
			<stop  offset="1" style="stop-color:#0C5C93"/>
		</linearGradient>
		<path style="opacity:0.3;fill:url(#SVGID_00000013886334875674260100000006608839945916281784_);" d="M836.374,1930.671
			c0,0-35.572,26.67,147.428,104.67c183,78,432.612,115.261,548.306,27.13c115.694-88.13-325.306-252.13-325.306-252.13
			L836.374,1930.671z"/>
		<g>
			
				<linearGradient id="SVGID_00000092452257985427810530000010008257718598122657_" gradientUnits="userSpaceOnUse" x1="836.3735" y1="1915.662" x2="1373.5323" y2="1915.662">
				<stop  offset="0" style="stop-color:#3951A2"/>
				<stop  offset="1" style="stop-color:#1A2652"/>
			</linearGradient>
			<path style="fill:url(#SVGID_00000092452257985427810530000010008257718598122657_);" d="M1373.532,1915.619
				c0,48.16-82.037,88.829-194.206,101.457c-23.601,2.787-48.508,4.18-74.373,4.18c-59.046,0-113.65-7.488-157.978-20.203
				c-67.058-19.161-110.602-50.337-110.602-85.434v-57.828h43.979c47.986-28.737,130.632-47.724,224.6-47.724
				c93.968,0,176.614,18.987,224.6,47.724h43.196v50.599C1373.184,1910.742,1373.532,1913.181,1373.532,1915.619z"/>
			
				<linearGradient id="SVGID_00000117668349215569737430000007015920361985597325_" gradientUnits="userSpaceOnUse" x1="1135.2634" y1="1848.2094" x2="831.9068" y2="2018.0313">
				<stop  offset="0" style="stop-color:#125D99"/>
				<stop  offset="1" style="stop-color:#0F88CC"/>
			</linearGradient>
			<path style="fill:url(#SVGID_00000117668349215569737430000007015920361985597325_);" d="M1373.532,1865.195
				c0,4.442-0.696,8.709-2.09,12.976c-13.15,42.411-90.223,76.987-192.116,88.481c-23.601,2.787-48.508,4.18-74.373,4.18
				c-59.046,0-113.65-7.488-157.978-20.203h-0.087c-66.971-19.246-110.515-50.337-110.515-85.434
				c0-58.349,120.268-105.637,268.58-105.637c22.033,0,43.457,1.044,63.922,3.047c114.782,10.973,200.651,51.035,204.483,99.192
				C1373.445,1862.931,1373.532,1864.064,1373.532,1865.195z"/>
			
				<linearGradient id="SVGID_00000182487127325862068310000011962559174985957765_" gradientUnits="userSpaceOnUse" x1="1104.9532" y1="1820.3882" x2="1373.3585" y2="1820.3882">
				<stop  offset="0" style="stop-color:#F87D0B"/>
				<stop  offset="1" style="stop-color:#F7CB14"/>
			</linearGradient>
			<path style="fill:url(#SVGID_00000182487127325862068310000011962559174985957765_);" d="M1373.359,1861.797l-1.916,16.374
				l-266.489-28.304l63.922-87.262C1283.657,1773.578,1369.527,1813.64,1373.359,1861.797z"/>
			<path style="fill:#47BAAC;" d="M1179.326,1966.652v50.424c-23.601,2.787-48.508,4.18-74.373,4.18
				c-59.046,0-113.65-7.488-157.978-20.203v-50.424L1179.326,1966.652z"/>
			<path style="fill:#6BE8DC;" d="M1179.326,1966.652c-23.601,2.787-48.508,4.18-74.373,4.18c-59.046,0-113.65-7.488-157.978-20.203
				l157.978-100.761L1179.326,1966.652z"/>
			<path style="fill:#CACECE;" d="M1373.532,1915.619c0,48.16-82.037,88.829-194.206,101.457v-50.424l192.116-88.481l1.307,1.393
				v28.827C1373.184,1910.742,1373.532,1913.181,1373.532,1915.619z"/>
			<path style="fill:#FFFFFF;" d="M1371.442,1878.171c-13.15,42.411-90.223,76.987-192.116,88.481l-74.373-116.784
				L1371.442,1878.171z"/>
		</g>
	</g>
	<g>
		<path style="fill:#FFFFFF;" d="M1021.674,1173.762l-361.105-167.619c-10.874-4.626-17.851-15.263-17.851-27.214V666.653
			c0-11.82,12.224-20.055,22.979-15.48l367.645,170.401c9.062,3.855,14.876,12.72,14.876,22.679v311.628
			C1048.219,1169.535,1034.098,1179.047,1021.674,1173.762z"/>
		
			<linearGradient id="SVGID_00000073708607387479246300000004936562013389078685_" gradientUnits="userSpaceOnUse" x1="843.5341" y1="1042.3296" x2="844.7679" y2="907.8297" gradientTransform="matrix(1 -0.0306 0 1 0 48.8181)">
			<stop  offset="0" style="stop-color:#F87D0B"/>
			<stop  offset="1" style="stop-color:#F7CB14"/>
		</linearGradient>
		<polygon style="fill:url(#SVGID_00000073708607387479246300000004936562013389078685_);" points="662.807,980.986 
			662.807,913.669 736.856,892.546 786.222,922.016 838.993,908.285 854.884,939.752 947.087,897.049 964.11,912.195 
			1025.392,877.515 1025.392,1093.704 		"/>
		
			<linearGradient id="SVGID_00000055695608129667137520000017407264510794692501_" gradientUnits="userSpaceOnUse" x1="843.5931" y1="1097.5411" x2="844.8561" y2="959.8623" gradientTransform="matrix(1 -0.0306 0 1 0 48.8181)">
			<stop  offset="0" style="stop-color:#125D99"/>
			<stop  offset="1" style="stop-color:#0F88CC"/>
		</linearGradient>
		<polygon style="fill:url(#SVGID_00000055695608129667137520000017407264510794692501_);" points="662.807,980.986 
			1025.392,1149.677 1025.392,943.903 967.515,995.038 936.022,959.402 905.382,977.361 888.359,968.316 807.5,988.013 
			753.028,934.214 690.809,943.916 		"/>
		<g>
			<path style="opacity:0.69;fill:#A3A3A3;" d="M759.843,741.88l-72.24-31.666c-2.969-1.285-5.399-4.766-5.399-7.736l0,0
				c0-2.969,2.429-4.347,5.399-3.062l72.24,31.666c2.969,1.285,5.398,4.766,5.398,7.736l0,0
				C765.241,741.788,762.812,743.166,759.843,741.88z"/>
			<path style="opacity:0.69;fill:#A3A3A3;" d="M759.843,840.09l-72.24-31.666c-2.969-1.285-5.399-4.766-5.399-7.736l0,0
				c0-2.969,2.429-4.347,5.399-3.061l72.24,31.666c2.969,1.285,5.398,4.767,5.398,7.736l0,0
				C765.241,839.997,762.812,841.375,759.843,840.09z"/>
			<path style="opacity:0.69;fill:#A3A3A3;" d="M849.486,814.466l-161.883-69.829c-2.969-1.285-5.399-4.766-5.399-7.735l0,0
				c0-2.969,2.429-4.347,5.399-3.062l161.883,69.829c2.969,1.285,5.398,4.766,5.398,7.735l0,0
				C854.884,814.373,852.455,815.751,849.486,814.466z"/>
			<path style="opacity:0.69;fill:#A3A3A3;" d="M849.486,848.888l-161.883-69.829c-2.969-1.285-5.399-4.766-5.399-7.736l0,0
				c0-2.969,2.429-4.347,5.399-3.061l161.883,69.829c2.969,1.285,5.398,4.766,5.398,7.736l0,0
				C854.884,848.796,852.455,850.174,849.486,848.888z"/>
		</g>
	</g>
	<g>
		<g>
			
				<linearGradient id="SVGID_00000165193109687208967360000000103196497591963061_" gradientUnits="userSpaceOnUse" x1="1986.3701" y1="1329.8817" x2="1479.3191" y2="780.8264">
				<stop  offset="0" style="stop-color:#3E3E3E"/>
				<stop  offset="1" style="stop-color:#6D6D6D"/>
			</linearGradient>
			<path style="fill:url(#SVGID_00000165193109687208967360000000103196497591963061_);" d="M2118.475,1697.043
				c-9.761,0-19.262-2.115-28.237-6.289l-891.744-416.267c-31.32-14.69-51.527-46.421-51.527-80.859V332.709
				c0-37.168,30.227-67.407,67.381-67.407c9.865,0,19.464,2.147,28.529,6.382l881.019,411.288
				c37.388,17.474,61.538,55.385,61.538,96.589v850.528C2185.434,1667.007,2155.396,1697.043,2118.475,1697.043z"/>
			
				<linearGradient id="SVGID_00000005256475919739634210000011977903876554767756_" gradientUnits="userSpaceOnUse" x1="1155.6449" y1="565.0722" x2="2057.9211" y2="1375.9781">
				<stop  offset="0" style="stop-color:#3E3E3E"/>
				<stop  offset="1" style="stop-color:#6D6D6D"/>
			</linearGradient>
			<path style="fill:url(#SVGID_00000005256475919739634210000011977903876554767756_);" d="M2090.871,1713.445
				c-9.761,0-19.262-2.115-28.237-6.289L1170.89,1290.89c-31.32-14.69-51.527-46.421-51.527-80.859V349.112
				c0-37.169,30.227-67.407,67.381-67.407c9.865,0,19.464,2.147,28.529,6.382l881.019,411.288
				c37.388,17.474,61.538,55.385,61.538,96.589v850.528C2157.83,1683.41,2127.792,1713.445,2090.871,1713.445z"/>
			
				<linearGradient id="SVGID_00000168822365406703356610000013302593780844713130_" gradientUnits="userSpaceOnUse" x1="1171.765" y1="579.5513" x2="2043.8861" y2="1363.3558">
				<stop  offset="0" style="stop-color:#FFFFFF"/>
				<stop  offset="1" style="stop-color:#F1F0EE"/>
			</linearGradient>
			<path style="fill:url(#SVGID_00000168822365406703356610000013302593780844713130_);" d="M2129.83,795.964v850.528
				c0,28.411-29.555,47.288-55.391,35.275l-891.705-416.249c-21.547-10.106-35.371-31.749-35.371-55.488V349.112
				c0-28.792,29.937-47.86,56.059-35.657l881.026,411.291C2112.192,737.713,2129.83,765.456,2129.83,795.964z"/>
		</g>
		
			<linearGradient id="SVGID_00000021822224019655407360000012504614016543533497_" gradientUnits="userSpaceOnUse" x1="1339.3931" y1="299.8516" x2="1913.5063" y2="815.8265">
			<stop  offset="0" style="stop-color:#125D99"/>
			<stop  offset="1" style="stop-color:#0F88CC"/>
		</linearGradient>
		<path style="fill:url(#SVGID_00000021822224019655407360000012504614016543533497_);" d="M2129.83,795.964v38.326
			l-982.467-457.722v-27.457c0-28.792,29.937-47.86,56.059-35.657l881.026,411.291
			C2112.192,737.713,2129.83,765.456,2129.83,795.964z"/>
		<g>
			<path style="opacity:0.6;fill:#FDFDFD;" d="M1201.534,351.683c-4.979-2.489-9.015-0.471-9.015,4.507s4.036,11.033,9.015,13.522
				c4.979,2.489,9.014,0.471,9.014-4.507C1210.548,360.226,1206.513,354.173,1201.534,351.683z"/>
			<path style="opacity:0.69;fill:#FDFDFD;" d="M1229.828,365.524c-4.979-2.489-9.015-0.471-9.015,4.507
				c0,4.979,4.036,11.033,9.015,13.522c4.979,2.489,9.014,0.472,9.014-4.507C1238.843,374.067,1234.807,368.014,1229.828,365.524z"
				/>
			<path style="fill:#FDFDFD;" d="M1258.122,379.365c-4.979-2.489-9.015-0.471-9.015,4.507s4.036,11.033,9.015,13.522
				c4.979,2.489,9.015,0.471,9.015-4.507C1267.137,387.908,1263.101,381.854,1258.122,379.365z"/>
		</g>
		<path style="fill:#FDFDFD;" d="M1675.364,602.946l326.845,152.582c9.243,4.315,19.838-2.432,19.838-12.632v-10.934
			c0-10.324-5.979-19.713-15.333-24.08l-326.639-152.485c-10.079-4.705-21.634,2.652-21.634,13.776v7.198
			C1658.441,587.764,1665.04,598.126,1675.364,602.946z"/>
	</g>
	<polygon style="fill:#6BE8DC;" points="1407.726,901.564 1248.497,823.433 1248.497,963.758 1407.726,1041.888 	"/>
	<polygon style="fill:#CCCCCC;" points="1407.726,1092.39 1248.497,1014.259 1248.497,1154.583 1407.726,1232.714 	"/>
	<polygon style="fill:#CCCCCC;" points="1601.676,805.449 1442.447,727.319 1442.447,867.643 1601.676,945.774 	"/>
	<polygon style="fill:#CCCCCC;" points="1601.676,996.275 1442.447,918.144 1442.447,1058.469 1601.676,1136.6 	"/>
	<polygon style="fill:#CCCCCC;" points="1601.676,1187.101 1442.447,1108.97 1442.447,1249.295 1601.676,1327.425 	"/>
	<g>
		
			<linearGradient id="SVGID_00000155126848042535012700000007628152473084850361_" gradientUnits="userSpaceOnUse" x1="1248.4969" y1="741.8349" x2="1407.7258" y2="741.8349">
			<stop  offset="0" style="stop-color:#125D99"/>
			<stop  offset="1" style="stop-color:#0F88CC"/>
		</linearGradient>
		<polygon style="fill:url(#SVGID_00000155126848042535012700000007628152473084850361_);" points="1407.726,710.738 
			1248.497,632.607 1248.497,772.932 1407.726,851.063 		"/>
		
			<linearGradient id="SVGID_00000094618619581374737390000005382293515431182993_" gradientUnits="userSpaceOnUse" x1="1127.7892" y1="859.7454" x2="1244.2626" y2="859.7454">
			<stop  offset="0" style="stop-color:#F87D0B"/>
			<stop  offset="1" style="stop-color:#F7CB14"/>
		</linearGradient>
		<path style="fill:url(#SVGID_00000094618619581374737390000005382293515431182993_);" d="M1127.845,859.559l83.178-35.302
			c0,0,12.748-4.553,23.22,7.74c10.472,12.293,10.016,27.562,10.016,27.562l-59.182,36.499
			C1185.078,896.058,1125.709,866.633,1127.845,859.559z"/>
		<path style="fill:#131E60;" d="M956.45,1789.438c0,0-13.76,40.243-7.926,44.91c5.833,4.667,36.167,25.084,58.334,14
			s72.334-32.084,78.751-43.167c6.417-11.083-9.917-31.5-28-27.417s-40.551,8.167-40.551,8.167L956.45,1789.438z"/>
		<path style="fill:#131E60;" d="M1099.92,1845.861c0,0-9.863,32.691,0,39.868c9.863,7.177,36.915,19.875,49.061,13.25
			s107.104-55.76,107.104-63.489c0-7.729-27.604-32.021-47.479-25.948c-19.875,6.073-50.24,19.323-50.24,19.323L1099.92,1845.861z"
			/>
		
			<linearGradient id="SVGID_00000038375676796256443120000007853213573856186268_" gradientUnits="userSpaceOnUse" x1="917.1332" y1="1549.8065" x2="1197.4287" y2="1549.8065">
			<stop  offset="0" style="stop-color:#125D99"/>
			<stop  offset="1" style="stop-color:#0F88CC"/>
		</linearGradient>
		<path style="fill:url(#SVGID_00000038375676796256443120000007853213573856186268_);" d="M1197.429,1250.577l-5.297,324.972
			l-13.968,254.996c0,0,10.656,18.766-25.772,32.012c-36.428,13.247-55.194-13.246-55.194-13.246l-23.815-411.061
			c0,0-8.197-8.413-19.236-23.867s-11.039-15.454-11.039-15.454l-8.831,379.799c0,0-3.312,25.389-32.012,28.701
			c-28.701,3.312-48.571-19.87-48.571-19.87l-6.623-384.215c0,0-24.285-46.363-28.701-81.687c-4.416-35.324,4.415-88.31,4.415-88.31
			L1197.429,1250.577z"/>
		
			<linearGradient id="SVGID_00000122711769407940473960000015131003263358667166_" gradientUnits="userSpaceOnUse" x1="1013.6515" y1="753.5864" x2="1158.8162" y2="753.5864">
			<stop  offset="0" style="stop-color:#FFD9D9"/>
			<stop  offset="1" style="stop-color:#EFB4B4"/>
		</linearGradient>
		<path style="fill:url(#SVGID_00000122711769407940473960000015131003263358667166_);" d="M1145.222,665.036
			c0,0,10.917,37.384,9.343,39.811s-4.7,7.283-4.594,10.681s8.845,10.681,8.845,18.449s-6.311,56.318-10.195,64.086
			s-29.615,10.195-36.412,17.964s-8.739,23.304-8.739,23.304s-20.391,6.312-51.463,0c-31.072-6.311-38.355-23.789-38.355-23.789
			s11.167-34.578,6.312-61.955c-4.855-27.377,36.413-80.296,36.413-80.296L1145.222,665.036z"/>
		<path style="fill:#131E60;" d="M1150.077,670.377c0,0,0,10.681-16.021,16.507s-16.021,5.826-16.021,5.826
			s6.312,13.594,4.37,32.043c-1.942,18.449,3.884,34.956-4.37,36.898c-8.253,1.942-3.398-25.246-17.478-29.616
			s-12.138,39.811-19.42,41.268s-63.115,9.225-74.282-24.275c-11.167-33.499-21.362-78.166-5.341-94.673
			c16.022-16.507,88.361-46.122,102.441-43.21c14.079,2.913,49.521,18.935,50.492,30.101
			C1155.418,652.414,1150.077,670.377,1150.077,670.377z"/>
		
			<linearGradient id="SVGID_00000041280384024764377550000004436744206149950339_" gradientUnits="userSpaceOnUse" x1="1182.6495" y1="1320.7396" x2="1182.6495" y2="845.5302">
			<stop  offset="0" style="stop-color:#F87D0B"/>
			<stop  offset="1" style="stop-color:#F7CB14"/>
		</linearGradient>
		<path style="fill:url(#SVGID_00000041280384024764377550000004436744206149950339_);" d="M1009.81,794.259
			c0,0,45.551,16.063,78.55,24.095c32.999,8.032,36.569,39.265,36.569,39.265s110.657,74.069,129.397,73.176
			c18.74-0.892,118.688-20.525,118.688-20.525l13.386-134.751c0,0,17.848-23.202,38.373-18.74
			c20.525,4.462,26.772,18.74,26.772,18.74s0,198.111-12.493,205.25c-12.494,7.139-236.484,65.145-236.484,65.145v199.896
			c0,0-64.252,66.929-172.232,49.974c-107.979-16.955-107.549-62.437-107.549-62.437l-7.569-205.975
			c0,0-4.329-162.926,1.917-185.236c6.247-22.31,65.012-25.568,73.044-29.137C998.208,809.429,1009.81,794.259,1009.81,794.259z"/>
		
			<linearGradient id="SVGID_00000155141564841692040010000003506745045341416629_" gradientUnits="userSpaceOnUse" x1="1343.2761" y1="716.1561" x2="1442.4467" y2="716.1561">
			<stop  offset="0" style="stop-color:#FFD9D9"/>
			<stop  offset="1" style="stop-color:#EFB4B4"/>
		</linearGradient>
		<path style="fill:url(#SVGID_00000155141564841692040010000003506745045341416629_);" d="M1395.181,766.622
			c0,0-3.745-15.837-18.152-25.305c-14.407-9.468-26.757-21.817-26.757-21.817s-1.235-9.056,7.821-6.998
			c9.056,2.058,25.11,7.409,25.11,7.409s-48.162-42.399-38.694-52.278c9.468-9.879,60.923,20.17,72.449,39.518
			s25.489,57.669,25.489,57.669S1417.449,756.114,1395.181,766.622z"/>
		
			<linearGradient id="SVGID_00000047739701022680754530000011596249791128531379_" gradientUnits="userSpaceOnUse" x1="1216.7521" y1="782.4107" x2="1289.5898" y2="782.4107">
			<stop  offset="0" style="stop-color:#FFD9D9"/>
			<stop  offset="1" style="stop-color:#EFB4B4"/>
		</linearGradient>
		<path style="fill:url(#SVGID_00000047739701022680754530000011596249791128531379_);" d="M1242.923,849.379
			c0,0,34.552-15.034,35.419-36.721c0.868-21.687,14.747-51.31,10.41-56.45c-4.337-5.14-3.904-13.382-10.41-7.309
			c-6.506,6.072-7.69,32.53-12.086,31.663s-4.396-21.253,4.713-36c9.109-14.747,15.181-22.98,6.94-28.406
			c-8.241-5.426-44.241,20.911-50.747,50.466c-6.506,29.555-10.41,56.811-10.41,56.811S1238.733,832.317,1242.923,849.379z"/>
	</g>
	<g>
		
			<linearGradient id="SVGID_00000007427282586795910380000003500077532114139559_" gradientUnits="userSpaceOnUse" x1="1767.0439" y1="977.8424" x2="1926.2728" y2="977.8424">
			<stop  offset="0" style="stop-color:#F87D0B"/>
			<stop  offset="1" style="stop-color:#F7CB14"/>
		</linearGradient>
		<polygon style="fill:url(#SVGID_00000007427282586795910380000003500077532114139559_);" points="1926.273,946.745 
			1767.044,868.615 1767.044,1008.939 1926.273,1087.07 		"/>
		<g>
			<path style="fill:#131E60;" d="M1894.357,960.746l-91.11-44.709c-3.233-1.587-7.01,0.767-7.01,4.369l0,0
				c0,1.856,1.056,3.551,2.723,4.369l91.11,44.709c3.233,1.587,7.01-0.767,7.01-4.369l0,0
				C1897.079,963.258,1896.023,961.564,1894.357,960.746z"/>
			<path style="fill:#131E60;" d="M1894.356,986.338l-91.109-44.709c-3.233-1.587-7.01,0.767-7.01,4.369l0,0
				c0,1.856,1.056,3.551,2.723,4.369l91.109,44.709c3.233,1.587,7.01-0.767,7.01-4.369l0,0
				C1897.079,988.851,1896.023,987.156,1894.356,986.338z"/>
			<path style="fill:#131E60;" d="M1894.356,1011.93l-91.109-44.709c-3.233-1.587-7.01,0.767-7.01,4.369l0,0
				c0,1.856,1.056,3.551,2.723,4.369l91.109,44.709c3.233,1.587,7.01-0.767,7.01-4.369l0,0
				C1897.079,1014.443,1896.023,1012.748,1894.356,1011.93z"/>
			<path style="fill:#131E60;" d="M1894.356,1037.522l-91.109-44.709c-3.233-1.587-7.01,0.767-7.01,4.369l0,0
				c0,1.856,1.056,3.551,2.723,4.369l91.109,44.709c3.233,1.587,7.01-0.767,7.01-4.369l0,0
				C1897.079,1040.035,1896.023,1038.34,1894.356,1037.522z"/>
		</g>
	</g>
	<g>
		<polygon style="fill:#FFFFFF;" points="1926.273,1141.475 1767.044,1063.345 1767.044,1203.669 1926.273,1281.8 		"/>
		<g>
			
				<linearGradient id="SVGID_00000046319880154740226270000016136183627712762290_" gradientUnits="userSpaceOnUse" x1="1796.2367" y1="1137.4902" x2="1897.0791" y2="1137.4902">
				<stop  offset="0" style="stop-color:#F2EFEB"/>
				<stop  offset="1" style="stop-color:#F9F9F8"/>
			</linearGradient>
			<polygon style="fill:url(#SVGID_00000046319880154740226270000016136183627712762290_);" points="1897.079,1156.812 
				1796.237,1107.327 1796.237,1118.168 1897.079,1167.653 			"/>
			
				<linearGradient id="SVGID_00000155842753661621027700000010764756209425322372_" gradientUnits="userSpaceOnUse" x1="1796.2367" y1="1163.0824" x2="1897.079" y2="1163.0824">
				<stop  offset="0" style="stop-color:#F2EFEB"/>
				<stop  offset="1" style="stop-color:#F9F9F8"/>
			</linearGradient>
			<polygon style="fill:url(#SVGID_00000155842753661621027700000010764756209425322372_);" points="1897.079,1182.404 
				1796.237,1132.919 1796.237,1143.76 1897.079,1193.246 			"/>
			
				<linearGradient id="SVGID_00000153682126946137421850000012685046420564326789_" gradientUnits="userSpaceOnUse" x1="1796.2367" y1="1188.6746" x2="1897.079" y2="1188.6746">
				<stop  offset="0" style="stop-color:#F2EFEB"/>
				<stop  offset="1" style="stop-color:#F9F9F8"/>
			</linearGradient>
			<polygon style="fill:url(#SVGID_00000153682126946137421850000012685046420564326789_);" points="1897.079,1207.996 
				1796.237,1158.511 1796.237,1169.353 1897.079,1218.838 			"/>
			
				<linearGradient id="SVGID_00000114038915930403242610000004707989105796551829_" gradientUnits="userSpaceOnUse" x1="1796.2367" y1="1214.2666" x2="1897.079" y2="1214.2666">
				<stop  offset="0" style="stop-color:#F2EFEB"/>
				<stop  offset="1" style="stop-color:#F9F9F8"/>
			</linearGradient>
			<polygon style="fill:url(#SVGID_00000114038915930403242610000004707989105796551829_);" points="1897.079,1233.589 
				1796.237,1184.103 1796.237,1194.945 1897.079,1244.43 			"/>
		</g>
	</g>
	<g>
		<polygon style="fill:#FFFFFF;" points="1926.273,1336.205 1767.044,1258.075 1767.044,1398.399 1926.273,1476.53 		"/>
		<g>
			
				<linearGradient id="SVGID_00000070093645944407081040000010249388229664880030_" gradientUnits="userSpaceOnUse" x1="1796.2367" y1="1332.2201" x2="1897.0791" y2="1332.2201">
				<stop  offset="0" style="stop-color:#F2EFEB"/>
				<stop  offset="1" style="stop-color:#F9F9F8"/>
			</linearGradient>
			<polygon style="fill:url(#SVGID_00000070093645944407081040000010249388229664880030_);" points="1897.079,1351.542 
				1796.237,1302.057 1796.237,1312.898 1897.079,1362.383 			"/>
			
				<linearGradient id="SVGID_00000018209110949533558730000017708985748931438013_" gradientUnits="userSpaceOnUse" x1="1796.2367" y1="1357.8124" x2="1897.079" y2="1357.8124">
				<stop  offset="0" style="stop-color:#F2EFEB"/>
				<stop  offset="1" style="stop-color:#F9F9F8"/>
			</linearGradient>
			<polygon style="fill:url(#SVGID_00000018209110949533558730000017708985748931438013_);" points="1897.079,1377.134 
				1796.237,1327.649 1796.237,1338.49 1897.079,1387.976 			"/>
			
				<linearGradient id="SVGID_00000051376125042942477510000015119356024317276605_" gradientUnits="userSpaceOnUse" x1="1796.2367" y1="1383.4044" x2="1897.079" y2="1383.4044">
				<stop  offset="0" style="stop-color:#F2EFEB"/>
				<stop  offset="1" style="stop-color:#F9F9F8"/>
			</linearGradient>
			<polygon style="fill:url(#SVGID_00000051376125042942477510000015119356024317276605_);" points="1897.079,1402.726 
				1796.237,1353.241 1796.237,1364.083 1897.079,1413.568 			"/>
			
				<linearGradient id="SVGID_00000091702131210690325690000005102867687367396768_" gradientUnits="userSpaceOnUse" x1="1796.2367" y1="1408.9967" x2="1897.079" y2="1408.9967">
				<stop  offset="0" style="stop-color:#F2EFEB"/>
				<stop  offset="1" style="stop-color:#F9F9F8"/>
			</linearGradient>
			<polygon style="fill:url(#SVGID_00000091702131210690325690000005102867687367396768_);" points="1897.079,1428.318 
				1796.237,1378.833 1796.237,1389.675 1897.079,1439.16 			"/>
		</g>
	</g>
	<g>
		<path style="fill:#131E60;" d="M1532.084,2084.012c0,0-12.871,40.678-7.414,45.161c5.457,4.482,33.831,23.941,54.567,12.157
			c20.735-11.784,67.663-34.369,73.665-45.655c6.002-11.286-9.276-31.187-26.192-26.532c-16.916,4.655-37.932,9.448-37.932,9.448
			L1532.084,2084.012z"/>
		<path style="fill:#131E60;" d="M1666.287,2135.904c0,0-9.226,33.002,0,39.868c9.226,6.865,34.531,18.709,45.892,11.7
			s100.186-59.143,100.186-66.873c0-7.729-25.821-31.149-44.412-24.448c-18.591,6.701-46.995,20.91-46.995,20.91L1666.287,2135.904z
			"/>
		
			<linearGradient id="SVGID_00000129168626103903739880000016435185227624829091_" gradientUnits="userSpaceOnUse" x1="1495.8617" y1="1846.0725" x2="1757.498" y2="1846.0725">
			<stop  offset="0" style="stop-color:#F87D0B"/>
			<stop  offset="1" style="stop-color:#F7CB14"/>
		</linearGradient>
		<path style="fill:url(#SVGID_00000129168626103903739880000016435185227624829091_);" d="M1757.498,1537.539l-4.955,325.14
			l-13.066,255.437c0,0,9.968,18.429-24.107,32.826c-34.075,14.397-51.629-11.503-51.629-11.503l-22.277-410.308
			c0,0-7.668-8.154-17.994-23.26c-10.326-15.106-10.326-15.106-10.326-15.106l-8.261,380.078c0,0-3.098,25.494-29.945,29.712
			c-26.847,4.218-45.434-18.335-45.434-18.335l-6.196-384.006c0,0-22.717-45.596-26.847-80.78
			c-4.13-35.185,14.383-80.588,14.383-80.588L1757.498,1537.539z"/>
		<g>
			<g>
				
					<linearGradient id="SVGID_00000098183875789661376580000011552057929929071285_" gradientUnits="userSpaceOnUse" x1="1738.2651" y1="1091.8506" x2="1815.9557" y2="1091.8506" gradientTransform="matrix(0.9997 0.0245 -0.0245 0.9997 96.9797 -116.8346)">
					<stop  offset="0" style="stop-color:#FFD9D9"/>
					<stop  offset="1" style="stop-color:#EFB4B4"/>
				</linearGradient>
				<path style="fill:url(#SVGID_00000098183875789661376580000011552057929929071285_);" d="M1842.367,1058.085
					c0,0-16.119-0.889-26.926-16.702c-10.807-15.813-6.483-39.962-6.483-39.962s3.915-32.866,31.61-20.993
					c27.695,11.874,44.643,56.219,44.643,56.219S1855.897,1037.765,1842.367,1058.085z"/>
				<path style="fill:#131E60;" d="M1815.126,1004.997l-42.905,7.377l9.739,17.677l47-8.439
					C1828.96,1021.612,1829.259,1009.412,1815.126,1004.997z"/>
				<path style="fill:#547FF5;" d="M1782.787,1020.11c2.185,5.118,1.197,10.029-2.208,10.969c-3.404,0.94-7.935-2.447-10.12-7.565
					c-2.185-5.118-1.197-10.029,2.208-10.97C1776.071,1011.605,1780.602,1014.992,1782.787,1020.11z"/>
			</g>
			
				<linearGradient id="SVGID_00000064355544900933693540000007275934415864672958_" gradientUnits="userSpaceOnUse" x1="2069.8347" y1="674.4755" x2="2197.1968" y2="674.4755" gradientTransform="matrix(0.9896 -0.1436 0.1436 0.9896 -533.217 719.855)">
				<stop  offset="0" style="stop-color:#FFD9D9"/>
				<stop  offset="1" style="stop-color:#EFB4B4"/>
			</linearGradient>
			<path style="fill:url(#SVGID_00000064355544900933693540000007275934415864672958_);" d="M1721.931,1027.453
				c0,0,13.452,18.852,13.811,29.534c0.359,10.681-9.208,55.531-17.286,57.299c-8.079,1.768-23.925-4.864-28.581-0.021
				c-4.655,4.843-4.977,35.131-4.977,35.131l-66.893-17.558l11.11-62.935l17.213-53.699L1721.931,1027.453z"/>
			<path style="fill:#131E60;" d="M1733.153,977.6c10.494,35.39,1.953,54.49-24.014,68.379
				c-25.967,13.889-50.773,11.671-50.773,11.671s11.789,31.493-9.597,44.123c-21.387,12.629-75.882-10.423-79.648-44.408
				c-3.766-33.985-1.919-103.316,77.39-110.656C1725.819,939.37,1733.153,977.6,1733.153,977.6z"/>
			
				<linearGradient id="SVGID_00000119095851145491845220000005181116245621529525_" gradientUnits="userSpaceOnUse" x1="1889.7856" y1="905.2618" x2="2383.2622" y2="905.2618" gradientTransform="matrix(0.9896 -0.1436 0.1436 0.9896 -533.217 719.855)">
				<stop  offset="0" style="stop-color:#FFFFFF"/>
				<stop  offset="0.9946" style="stop-color:#E6E5E0"/>
			</linearGradient>
			<path style="fill:url(#SVGID_00000119095851145491845220000005181116245621529525_);" d="M1570.805,1110.334
				c-2.015,2.435-11.279,9.305-27.177,13.979s-50.01,20.471-59.252,59.485c-9.242,39.014-17.13,196.393-10.485,204.112
				c6.645,7.719,49.623,7.124,49.623,7.124l-12.669,141.812c0,0,42.702,43.97,127.751,37.155
				c85.049-6.815,115.413-36.578,115.413-36.578s-26.606-195.868-8.369-211.933s39.34-44.708,39.34-44.708
				s159.86-67.867,158.714-86.645s-59.117-161.579-59.117-161.579s-14.488-7.37-32.469,4.711
				c-17.98,12.081-16.073,25.223-16.073,25.223l16.678,96.596c0,0-83.608,32.319-95.541,31.682s-49.818-13.894-54.63-17.606
				c-4.812-3.712-5.637-27.968-5.637-27.968L1570.805,1110.334z"/>
			<path style="fill:#131E60;" d="M1594.61,995.232c0,0,21.766,2.289,21.981,24.287c0.215,21.997-13.422,34.693-13.422,34.693
				s30.175,80.759,10.376,133.048c-19.799,52.289-112.001,32.326-112.001,32.326s49.592-31.606,33.747-75.15
				c-15.844-43.544-34.12-120.255-1.905-140.32S1594.61,995.232,1594.61,995.232z"/>
		</g>
	</g>
	<g>
		<path style="fill:#6BE8DC;" d="M2338.298,1796.594c73.823-17.754,78.745-215.751,78.745-215.751l-186.37-86.854
			c0,0-4.922,197.997-78.745,215.751L2338.298,1796.594z"/>
		
			<ellipse transform="matrix(0.7882 -0.6154 0.6154 0.7882 -481.0056 1763.5381)" style="fill:#53BCAF;" cx="2321.653" cy="1580.598" rx="14.617" ry="23.977"/>
	</g>
	<g>
		
			<linearGradient id="SVGID_00000047754081532843731380000010341584139274196876_" gradientUnits="userSpaceOnUse" x1="2151.928" y1="1302.5255" x2="2417.043" y2="1302.5255">
			<stop  offset="0" style="stop-color:#F87D0B"/>
			<stop  offset="1" style="stop-color:#F7CB14"/>
		</linearGradient>
		<path style="fill:url(#SVGID_00000047754081532843731380000010341584139274196876_);" d="M2338.298,1453.828
			c73.823-17.754,78.745-215.751,78.745-215.751l-186.37-86.854c0,0-4.922,197.997-78.745,215.751L2338.298,1453.828z"/>
		
			<ellipse transform="matrix(0.7882 -0.6154 0.6154 0.7882 -270.0632 1690.942)" style="fill:#53BCAF;" cx="2321.653" cy="1237.832" rx="14.617" ry="23.977"/>
	</g>
	<g>
		
			<rect x="1623.764" y="320.33" transform="matrix(0.4374 -0.8993 0.8993 0.4374 234.7288 1887.6201)" style="fill:#969696;" width="4.517" height="871.751"/>
	</g>
	<g>
		
			<linearGradient id="SVGID_00000007399172953995499580000002237005888126116011_" gradientUnits="userSpaceOnUse" x1="975.1222" y1="665.5499" x2="799.2142" y2="353.1379">
			<stop  offset="0" style="stop-color:#F87D0B"/>
			<stop  offset="1" style="stop-color:#F7CB14"/>
		</linearGradient>
		<path style="fill:url(#SVGID_00000007399172953995499580000002237005888126116011_);" d="M1030.467,549.114
			c0-92.938-75.343-205.953-168.283-252.421c-49.816-24.908-94.437-25.447-125.249-6.454l-0.342-0.046l-37.196,24.175l6.783,9.69
			c-7.853,15.523-12.276,34.514-12.276,56.775c0,92.94,75.342,205.953,168.281,252.423c26.687,13.342,51.825,19.534,74.243,19.686
			l8.924,12.747l34.584-21.719c5.33-2.56,10.241-5.725,14.841-9.319l1.492-0.936l0.013-0.324
			C1017.646,615.859,1030.467,587.232,1030.467,549.114z"/>
		
			<linearGradient id="SVGID_00000154383514984883809640000002968774929453343422_" gradientUnits="userSpaceOnUse" x1="662.5067" y1="485.1708" x2="999.0707" y2="485.1708">
			<stop  offset="0" style="stop-color:#F87D0B"/>
			<stop  offset="1" style="stop-color:#F7CB14"/>
		</linearGradient>
		<path style="fill:url(#SVGID_00000154383514984883809640000002968774929453343422_);" d="M999.071,569.312
			c0,92.94-75.342,130.611-168.282,84.141c-92.94-46.47-168.282-159.483-168.282-252.423s75.342-130.611,168.282-84.141
			S999.071,476.372,999.071,569.312z"/>
		
			<ellipse transform="matrix(0.7882 -0.6154 0.6154 0.7882 -122.6233 614.0355)" style="fill:#FFFFFF;" cx="830.789" cy="485.171" rx="112.156" ry="183.98"/>
		
			<linearGradient id="SVGID_00000119810309779406391910000005866086326325279919_" gradientUnits="userSpaceOnUse" x1="710.6175" y1="485.1731" x2="950.9676" y2="485.1731">
			<stop  offset="0" style="stop-color:#F87D0B"/>
			<stop  offset="1" style="stop-color:#F7CB14"/>
		</linearGradient>
		<path style="fill:url(#SVGID_00000119810309779406391910000005866086326325279919_);" d="M950.968,545.262
			c0,66.368-53.805,93.268-120.176,60.082c-66.371-33.186-120.175-113.891-120.174-180.259s53.805-93.268,120.176-60.082
			C897.164,398.189,950.968,478.893,950.968,545.262z"/>
		
			<ellipse transform="matrix(0.7882 -0.6154 0.6154 0.7882 -122.623 614.0389)" style="fill:#FFFFFF;" cx="830.791" cy="485.172" rx="73.547" ry="120.647"/>
		
			<linearGradient id="SVGID_00000096055429325832174900000005239572079341670335_" gradientUnits="userSpaceOnUse" x1="759.1504" y1="485.1685" x2="902.4251" y2="485.1685">
			<stop  offset="0" style="stop-color:#F87D0B"/>
			<stop  offset="1" style="stop-color:#F7CB14"/>
		</linearGradient>
		<path style="fill:url(#SVGID_00000096055429325832174900000005239572079341670335_);" d="M902.425,520.986
			c0,39.566-32.072,55.605-71.637,35.823c-39.564-19.782-71.638-67.893-71.638-107.459c0-39.566,32.072-55.605,71.637-35.823
			C870.351,433.309,902.425,481.42,902.425,520.986z"/>
		
			<ellipse transform="matrix(0.7882 -0.6154 0.6154 0.7882 -122.621 614.0487)" style="fill:#FFFFFF;" cx="830.791" cy="485.17" rx="41.35" ry="67.831"/>
		
			<linearGradient id="SVGID_00000168107830145652064530000012586142526911076798_" gradientUnits="userSpaceOnUse" x1="796.8975" y1="485.1681" x2="864.679" y2="485.1681">
			<stop  offset="0" style="stop-color:#F87D0B"/>
			<stop  offset="1" style="stop-color:#F7CB14"/>
		</linearGradient>
		<path style="fill:url(#SVGID_00000168107830145652064530000012586142526911076798_);" d="M864.679,502.113
			c-0.001,18.717-15.176,26.303-33.893,16.944c-18.717-9.358-33.89-32.118-33.888-50.834c0.001-18.717,15.176-26.303,33.893-16.944
			C849.508,460.637,864.68,483.397,864.679,502.113z"/>
		
			<ellipse transform="matrix(0.7882 -0.6154 0.6154 0.7882 -122.6188 614.0554)" style="fill:#FFFFFF;" cx="830.788" cy="485.168" rx="14.1" ry="23.128"/>
		
			<linearGradient id="SVGID_00000088846212119025434040000010002323097594860177_" gradientUnits="userSpaceOnUse" x1="582.9569" y1="553.9716" x2="830.7619" y2="553.9716">
			<stop  offset="0" style="stop-color:#125D99"/>
			<stop  offset="1" style="stop-color:#0F88CC"/>
		</linearGradient>
		<polygon style="fill:url(#SVGID_00000088846212119025434040000010002323097594860177_);" points="830.762,482.011 
			670.993,557.393 644.137,550.007 582.957,579.195 616.363,591.192 607.592,625.932 669.036,596.258 677.938,565.1 
			830.762,490.171 		"/>
	</g>
	<g>
		
			<linearGradient id="SVGID_00000058558385406832414650000001898054915018459287_" gradientUnits="userSpaceOnUse" x1="2333.9993" y1="912.4301" x2="2256.7158" y2="1138.335">
			<stop  offset="0" style="stop-color:#F2EFEB"/>
			<stop  offset="1" style="stop-color:#F9F9F8"/>
		</linearGradient>
		<path style="fill:url(#SVGID_00000058558385406832414650000001898054915018459287_);" d="M2338.298,1169.719
			c73.823-17.754,78.745-215.751,78.745-215.751l-186.37-86.854c0,0-4.922,197.997-78.745,215.751L2338.298,1169.719z"/>
		
			<ellipse transform="matrix(0.7882 -0.6154 0.6154 0.7882 -95.2198 1630.7644)" style="fill:#D3CFCB;" cx="2321.653" cy="953.723" rx="14.617" ry="23.977"/>
	</g>
</g>
</svg>
